<svg version="1.0" xmlns="http://www.w3.org/2000/svg" width="239.000000ptpx" height="300.000000ptpx" viewBox="0 0 239.000000 300.000000" preserveAspectRatio="xMidYMid meet" transform="rotate(0) scale(1, 1)">
<metadata>
Created by potrace 1.10, written by Peter Selinger 2001-2011
</metadata>
<g transform="translate(0.000000,300.000000) scale(0.100000,-0.100000)" fill="#495c9d" stroke="none">
<path d="M1891 2873 c-88 -178 -258 -387 -428 -523 -140 -113 -565 -381 -580&#xA;-366 -3 3 4 32 16 63 39 102 39 99 1 77 -18 -10 -95 -82 -172 -159 -83 -83&#xA;-142 -135 -145 -127 -7 17 -103 -52 -131 -94 -12 -19 -22 -46 -23 -61 0 -18&#xA;-10 -36 -29 -51 -46 -36 -197 -113 -259 -132 -63 -19 -75 -35 -93 -123 -10&#xA;-49 -9 -60 11 -110 22 -54 54 -85 146 -139 7 -4 9 6 7 28 -5 39 9 45 32 12 16&#xA;-22 92 -78 107 -78 4 0 0 19 -11 43 -28 66 -35 107 -16 107 8 0 18 -4 21 -10&#xA;14 -22 35 -10 35 20 0 33 11 38 30 15 18 -22 30 -18 30 9 0 34 14 40 35 16 24&#xA;-26 35 -25 35 3 0 12 4 29 10 37 8 12 11 12 28 -3 23 -21 32 -22 32 -2 0 35&#xA;38 55 104 55 93 0 126 -8 126 -32 0 -26 -53 -124 -92 -172 -28 -34 -35 -37&#xA;-65 -33 -36 6 -39 1 -21 -38 14 -32 8 -38 -27 -25 -26 10 -27 9 -20 -17 13&#xA;-53 14 -52 -31 -39 -18 6 -20 3 -16 -24 2 -16 0 -30 -6 -30 -5 0 -33 21 -61&#xA;46 -51 46 -52 46 -45 18 4 -16 13 -46 20 -67 14 -39 2 -51 -24 -25 -9 9 -12 8&#xA;-12 -6 0 -35 33 -86 73 -116 39 -29 45 -30 143 -30 l103 0 -14 34 c-20 46 -6&#xA;88 53 161 63 79 133 130 212 157 74 24 179 28 249 9 23 -7 45 -10 48 -8 2 3&#xA;-3 19 -11 36 -22 42 -20 89 7 135 22 39 43 56 194 150 l78 50 -72 11 c-96 15&#xA;-123 34 -123 86 0 48 10 68 101 206 38 58 69 109 69 114 0 14 -13 11 -91 -25&#xA;-98 -45 -215 -86 -223 -79 -3 3 9 25 27 47 18 23 45 61 61 86 53 81 98 130&#xA;220 235 174 149 259 266 337 464 41 105 83 253 77 272 -2 5 -18 -21 -37 -58z&#xA;m-1081 -1101 c0 -21 -63 -104 -86 -112 -32 -13 -94 -13 -94 -1 0 15 82 82 125&#xA;102 45 21 55 23 55 11z m-624 -387 c-30 -39 -36 -42 -36 -20 0 18 48 70 57 61&#xA;3 -3 -6 -21 -21 -41z"/>
<path d="M1475 2670 c-80 -159 -232 -332 -414 -474 -70 -54 -109 -92 -118&#xA;-114 -7 -17 -9 -32 -5 -32 12 0 205 118 322 196 105 70 126 97 183 229 36 86&#xA;72 216 65 237 -3 7 -17 -12 -33 -42z"/>
<path d="M1545 2141 c-56 -10 -74 -22 -137 -89 -57 -62 -124 -162 -109 -162 5&#xA;0 47 16 93 36 117 51 188 75 188 63 0 -18 -57 -123 -124 -229 -113 -177 -108&#xA;-187 84 -207 l75 -8 -40 -40 c-22 -22 -86 -68 -142 -103 -57 -34 -107 -71&#xA;-113 -82 -9 -17 -5 -22 29 -40 47 -23 88 -74 97 -118 4 -18 10 -32 13 -32 4 0&#xA;26 20 50 44 l43 44 -16 33 c-9 18 -14 34 -12 36 7 7 56 -58 56 -74 0 -8 -26&#xA;-41 -59 -72 -32 -31 -61 -67 -66 -81 -4 -14 -18 -44 -32 -68 l-24 -43 28 7&#xA;c15 4 57 16 93 28 l65 21 7 64 c9 78 15 86 23 29 15 -101 -3 -124 -125 -160&#xA;-59 -18 -96 -38 -169 -93 l-93 -70 117 -3 c138 -3 147 1 202 86 21 31 39 59&#xA;40 61 2 2 5 2 8 -1 8 -7 -62 -142 -83 -161 -14 -12 -49 -18 -152 -23 -148 -6&#xA;-165 -12 -344 -117 -82 -48 -79 -50 79 -66 201 -20 188 -24 285 74 47 47 88&#xA;85 93 85 5 0 -14 -28 -42 -63 -136 -166 -225 -300 -266 -401 l-16 -39 54 6&#xA;c304 36 635 259 846 570 17 26 39 47 47 47 50 0 119 -78 139 -158 l12 -47 13&#xA;60 c18 88 7 259 -24 370 -14 49 -24 90 -22 92 7 8 77 -29 107 -57 18 -16 34&#xA;-28 36 -27 6 7 -28 113 -56 172 -35 76 -103 182 -156 245 -35 42 -36 45 -16&#xA;48 29 5 88 -15 134 -44 20 -13 37 -21 37 -18 0 18 -96 137 -152 190 -67 62&#xA;-175 139 -240 170 -21 10 -38 21 -38 25 0 21 122 23 200 3 42 -10 -99 80 -179&#xA;116 -62 27 -159 54 -271 77 l-25 5 29 23 c24 19 47 29 125 51 8 3 12 6 10 8&#xA;-9 8 -177 14 -214 7z"/>
<path d="M925 512 c-90 -56 -219 -206 -193 -224 32 -21 201 -67 278 -76 47 -6&#xA;85 -10 86 -9 1 1 19 36 39 77 21 41 57 106 82 144 24 37 43 70 41 71 -2 2 -57&#xA;8 -123 15 -66 6 -133 13 -150 16 -19 3 -41 -2 -60 -14z"/>
</g>
</svg>