<svg id="svg" version="1.1" xmlns="http://www.w3.org/2000/svg" xmlns:xlink="http://www.w3.org/1999/xlink" width="400px" height="377.4757281553398px" viewBox="0, 0, 400,377.4757281553398" transform="rotate(0) scale(1, 1)"><g id="svgg"><path id="path0" d="M279.486 39.417 C 277.808 43.059,274.821 48.953,273.431 51.364 C 272.701 52.630,272.104 53.697,272.104 53.735 C 272.104 54.204,265.824 64.387,262.393 69.481 C 253.013 83.409,240.910 96.205,225.631 108.346 C 224.919 108.912,224.205 109.493,224.044 109.639 C 223.616 110.026,219.502 113.133,216.934 115.009 C 213.290 117.671,200.030 126.578,197.122 128.318 C 196.854 128.478,195.178 129.559,193.398 130.719 C 191.618 131.879,189.987 132.901,189.773 132.990 C 189.560 133.078,189.036 133.404,188.608 133.713 C 188.181 134.022,187.191 134.649,186.408 135.107 C 185.625 135.565,184.809 136.051,184.595 136.187 C 183.874 136.647,174.636 142.193,173.722 142.714 C 173.223 142.998,172.291 143.527,171.650 143.889 C 171.010 144.251,169.786 144.975,168.932 145.498 C 166.813 146.794,160.798 150.068,159.925 150.400 C 159.242 150.660,159.222 150.643,159.384 149.963 C 160.051 147.147,163.418 138.315,165.561 133.758 C 166.927 130.854,166.921 130.714,165.466 131.632 C 164.886 131.998,164.354 132.298,164.285 132.298 C 163.931 132.298,158.249 136.059,155.986 137.791 C 153.116 139.988,153.225 139.878,149.246 144.593 C 146.994 147.262,143.291 151.254,139.905 154.661 C 138.566 156.008,135.090 159.201,131.133 162.718 C 129.851 163.857,128.067 165.488,127.168 166.343 C 124.800 168.594,124.731 168.576,125.556 165.924 C 126.177 163.928,126.108 163.840,124.723 164.865 C 124.119 165.313,121.994 166.847,120.000 168.274 C 118.006 169.702,115.735 171.330,114.951 171.893 C 112.275 173.815,110.508 176.131,108.262 180.665 L 107.452 182.302 107.786 184.560 L 108.120 186.818 106.940 187.870 C 105.814 188.875,101.105 192.362,100.876 192.362 C 100.815 192.362,99.676 193.047,98.344 193.884 C 94.857 196.076,92.183 197.513,88.155 199.362 C 87.159 199.820,84.654 201.032,82.589 202.055 C 77.474 204.591,74.236 205.708,70.128 206.353 C 67.591 206.751,67.709 206.647,67.037 209.065 C 65.983 212.856,64.953 216.274,63.676 220.213 C 62.246 224.627,62.242 224.430,63.815 228.220 C 64.287 229.359,65.166 231.515,65.766 233.010 C 67.814 238.108,68.940 239.550,72.558 241.703 C 75.175 243.261,76.638 244.251,78.807 245.930 C 81.001 247.629,83.495 249.156,83.847 249.017 C 83.966 248.970,83.798 247.883,83.473 246.602 C 82.831 244.065,82.654 240.668,83.148 240.363 C 83.326 240.253,83.818 240.591,84.351 241.189 C 88.545 245.894,90.409 247.620,93.648 249.799 C 95.244 250.872,100.458 253.545,100.626 253.376 C 100.675 253.328,100.043 251.958,99.223 250.333 C 96.446 244.834,94.658 238.232,95.061 234.966 L 95.146 234.282 97.375 235.782 C 98.601 236.607,100.134 237.649,100.781 238.098 L 101.958 238.914 102.102 238.098 C 102.182 237.649,102.274 236.000,102.308 234.434 C 102.342 232.867,102.434 231.266,102.512 230.876 L 102.654 230.166 104.337 231.468 C 105.262 232.184,106.777 233.339,107.702 234.033 L 109.385 235.297 109.535 232.276 C 109.617 230.615,109.834 228.640,110.016 227.888 L 110.347 226.520 113.491 229.770 C 117.260 233.668,117.281 233.674,117.283 230.874 C 117.285 228.696,117.920 225.459,118.718 223.563 L 119.152 222.530 120.738 224.340 C 124.542 228.679,124.549 228.682,125.214 226.137 C 126.123 222.657,127.871 220.306,129.910 219.824 C 135.032 218.612,143.548 218.871,149.600 220.421 C 150.502 220.652,151.288 220.841,151.348 220.841 C 152.116 220.841,150.623 225.877,148.722 229.702 C 146.148 234.878,140.186 243.465,137.484 245.888 C 136.533 246.740,132.857 246.128,129.903 244.626 C 128.449 243.886,128.642 244.967,130.991 250.722 C 132.287 253.897,132.298 254.074,131.197 253.853 C 129.845 253.583,127.890 252.918,126.125 252.127 C 125.221 251.723,124.420 251.392,124.344 251.392 C 123.988 251.392,125.545 257.113,126.793 260.388 C 127.047 261.054,124.758 260.501,121.933 259.214 C 118.933 257.847,118.957 257.784,120.272 263.511 C 120.985 266.617,120.976 266.620,117.496 264.277 C 113.980 261.908,110.200 258.453,107.789 255.405 C 107.339 254.835,106.897 254.442,106.808 254.530 C 106.172 255.164,108.533 264.576,110.274 268.344 C 110.856 269.602,111.265 270.698,111.184 270.779 C 111.006 270.958,108.675 269.757,106.611 268.423 C 104.479 267.045,104.469 267.072,105.528 271.176 C 107.121 277.351,110.034 280.960,117.262 285.718 L 118.408 286.472 130.919 286.560 C 138.251 286.612,143.430 286.552,143.430 286.415 C 143.430 286.286,143.071 285.839,142.631 285.421 C 137.994 281.013,138.517 275.309,144.303 267.184 C 159.133 246.360,179.393 239.309,203.706 246.511 C 206.915 247.462,206.807 247.539,205.398 245.307 C 202.498 240.714,201.288 236.052,202.041 232.361 C 203.207 226.640,206.808 222.140,213.981 217.441 C 216.317 215.910,223.771 211.521,224.034 211.521 C 224.964 211.521,236.117 203.631,236.117 202.973 C 236.117 202.732,234.628 202.547,230.939 202.329 C 217.366 201.530,213.201 199.220,213.206 192.492 C 213.210 187.460,215.155 183.363,222.362 173.204 C 229.281 163.451,235.031 153.786,233.914 153.786 C 233.355 153.786,231.352 154.593,227.226 156.482 C 226.110 156.993,225.112 157.411,225.009 157.411 C 224.906 157.411,224.363 157.632,223.803 157.902 C 223.242 158.172,221.618 158.917,220.194 159.557 C 218.770 160.197,216.848 161.066,215.922 161.488 C 209.205 164.551,197.916 168.286,196.310 167.977 C 196.008 167.918,196.459 167.233,197.947 165.487 C 202.127 160.582,204.040 157.972,206.427 153.916 C 206.594 153.631,206.797 153.340,206.878 153.269 C 206.959 153.197,207.399 152.498,207.856 151.715 C 210.723 146.805,215.710 140.869,221.667 135.275 C 224.889 132.250,225.719 131.535,230.535 127.638 C 241.706 118.595,247.522 112.854,252.959 105.502 C 253.590 104.647,254.179 103.890,254.267 103.819 C 254.355 103.748,255.406 102.233,256.603 100.453 C 263.297 90.501,267.477 82.297,272.630 68.997 C 274.570 63.992,277.197 54.928,278.973 47.120 C 279.022 46.906,279.404 45.042,279.821 42.977 C 281.153 36.398,281.106 35.900,279.486 39.417 M232.237 62.116 C 231.343 64.413,227.044 72.390,223.088 79.094 C 220.382 83.681,215.659 90.581,212.899 93.981 C 212.726 94.194,212.028 95.068,211.348 95.922 C 207.430 100.847,198.837 109.872,194.045 114.096 C 193.049 114.975,191.942 115.950,191.586 116.263 C 190.275 117.417,185.189 121.609,183.432 122.984 C 182.436 123.764,181.387 124.596,181.102 124.834 C 180.816 125.072,178.427 126.840,175.793 128.762 C 169.693 133.212,168.572 134.091,167.985 134.887 C 167.081 136.109,164.557 143.689,165.052 143.689 C 165.857 143.689,180.458 134.984,191.760 127.767 C 194.435 126.058,196.743 124.601,196.888 124.530 C 198.171 123.895,212.254 114.417,213.340 113.457 C 216.543 110.625,224.248 95.730,227.306 86.456 C 230.255 77.514,233.070 64.704,232.687 61.973 L 232.583 61.230 232.237 62.116 M238.706 131.422 C 234.568 131.926,230.373 132.675,229.515 133.062 C 226.686 134.341,217.707 143.267,213.615 148.867 C 212.731 150.078,211.868 151.243,211.696 151.456 C 211.525 151.670,211.140 152.252,210.841 152.751 C 210.542 153.249,209.834 154.414,209.269 155.340 C 208.704 156.265,207.797 157.838,207.253 158.835 C 206.710 159.832,206.141 160.846,205.990 161.089 C 205.391 162.051,206.724 161.796,210.356 160.256 C 210.641 160.135,211.573 159.747,212.427 159.394 C 213.282 159.040,215.204 158.211,216.699 157.550 C 219.494 156.316,229.139 152.235,232.362 150.924 C 234.870 149.903,238.665 148.608,239.147 148.608 C 240.782 148.608,234.117 161.975,228.226 170.512 C 211.035 195.422,211.678 198.326,234.556 199.104 C 239.038 199.257,242.735 199.413,242.773 199.450 C 243.049 199.726,240.211 203.327,237.951 205.566 C 234.647 208.842,229.437 212.351,221.230 216.828 C 215.417 219.999,211.478 222.999,208.875 226.238 C 207.391 228.083,207.390 228.079,209.646 228.742 C 210.394 228.962,211.594 229.488,212.311 229.911 C 213.028 230.334,213.679 230.680,213.758 230.680 C 214.110 230.680,218.229 233.856,219.187 234.865 C 222.248 238.094,224.466 243.417,224.466 247.537 C 224.466 248.799,224.618 248.793,226.320 247.464 C 230.887 243.895,235.637 239.028,236.012 237.532 C 236.319 236.310,234.626 232.278,232.652 229.528 C 231.330 227.686,231.730 227.736,233.687 229.659 C 236.874 232.789,239.035 236.016,239.035 237.645 C 239.035 239.824,234.587 244.993,228.966 249.349 C 227.381 250.576,226.240 251.662,226.077 252.097 C 225.929 252.492,225.453 253.948,225.020 255.333 C 224.002 258.584,222.020 262.635,219.924 265.748 C 218.017 268.581,217.932 268.487,221.691 267.714 C 230.608 265.879,239.656 262.617,240.445 260.952 C 241.217 259.324,241.655 255.425,241.669 250.054 C 241.677 247.111,241.712 244.733,241.749 244.769 C 241.785 244.805,242.109 245.815,242.469 247.013 C 244.286 253.066,244.441 261.462,242.767 263.264 C 240.722 265.465,231.932 268.962,224.146 270.673 C 219.827 271.622,220.315 271.349,215.405 275.556 C 211.779 278.662,207.606 281.828,203.702 284.435 C 199.893 286.979,198.317 288.189,198.317 288.572 C 198.317 289.783,225.510 289.132,228.941 287.839 C 230.390 287.293,234.851 281.238,239.296 273.786 C 241.617 269.895,241.847 269.604,241.548 270.939 C 240.147 277.206,233.409 289.439,230.525 290.953 C 228.007 292.275,203.290 293.455,200.506 292.387 C 200.164 292.256,197.740 293.411,191.197 296.823 C 177.496 303.970,166.888 310.198,166.937 311.068 C 166.963 311.537,172.505 312.569,180.065 313.514 C 184.097 314.018,189.033 314.498,192.104 314.685 C 193.456 314.767,195.204 314.888,195.987 314.954 C 196.770 315.020,198.343 315.130,199.482 315.199 C 200.621 315.268,202.777 315.400,204.272 315.491 L 206.990 315.658 209.605 312.715 C 215.103 306.530,228.608 293.625,228.608 294.559 C 228.608 294.750,224.088 300.407,221.394 303.588 C 221.019 304.030,220.537 304.617,220.324 304.891 C 220.110 305.165,219.353 306.084,218.641 306.932 C 217.929 307.780,217.172 308.692,216.958 308.959 C 216.744 309.225,216.449 309.576,216.303 309.738 C 213.067 313.309,206.769 321.801,202.643 328.155 C 197.254 336.454,189.322 351.941,189.944 352.947 C 190.640 354.073,210.727 350.099,218.252 347.348 C 222.979 345.619,224.026 345.208,227.034 343.900 C 231.071 342.143,238.160 338.606,240.863 336.999 C 241.978 336.335,242.946 335.793,243.013 335.793 C 243.080 335.793,243.821 335.327,244.660 334.757 C 245.499 334.188,246.252 333.722,246.334 333.722 C 246.569 333.722,253.634 328.881,255.922 327.152 C 270.766 315.935,285.314 300.093,296.254 283.236 C 297.789 280.871,299.324 281.032,304.123 284.061 C 309.315 287.339,315.340 298.206,315.340 304.294 C 315.340 304.799,315.457 305.284,315.599 305.372 C 316.419 305.879,318.262 295.795,318.463 289.709 C 319.011 273.092,317.802 264.686,312.386 247.443 C 311.663 245.142,311.623 245.172,314.176 246.083 C 319.453 247.966,324.599 251.793,328.014 256.375 C 329.373 258.198,329.432 258.205,329.208 256.505 C 327.285 241.898,315.257 218.894,302.100 204.660 C 301.573 204.091,300.877 203.285,300.551 202.870 L 299.960 202.115 303.184 202.280 C 307.362 202.494,309.720 203.118,313.613 205.042 C 316.700 206.567,318.103 207.517,321.802 210.586 C 324.187 212.564,324.201 212.468,322.070 208.726 C 316.799 199.468,310.938 192.420,301.748 184.284 C 298.453 181.367,290.296 175.340,287.249 173.570 C 286.964 173.405,285.100 172.307,283.107 171.130 C 281.113 169.953,277.793 168.146,275.730 167.113 L 271.977 165.236 273.399 164.812 C 281.084 162.521,290.727 163.026,298.032 166.100 C 301.077 167.382,300.729 166.902,296.076 163.403 C 281.257 152.259,264.915 145.699,244.660 142.764 C 240.864 142.213,240.857 142.203,243.275 140.482 C 248.224 136.959,254.885 134.451,261.039 133.793 C 262.599 133.626,263.727 133.397,263.602 133.272 C 263.359 133.029,259.646 132.240,256.570 131.778 C 254.654 131.490,240.465 131.208,238.706 131.422 M151.974 173.300 C 151.974 173.353,151.351 174.436,150.589 175.706 C 149.827 176.976,148.463 179.388,147.558 181.067 C 144.525 186.692,142.604 187.696,134.104 188.100 C 129.443 188.322,129.448 188.346,133.333 184.523 C 139.299 178.652,143.090 176.166,149.644 173.824 C 151.247 173.252,151.974 173.088,151.974 173.300 M83.366 213.476 C 83.366 214.659,76.223 222.847,75.672 222.295 C 75.621 222.244,75.933 221.099,76.365 219.750 C 77.262 216.951,78.061 215.935,80.295 214.757 C 81.058 214.354,81.974 213.870,82.330 213.681 C 83.021 213.313,83.366 213.245,83.366 213.476 M162.416 319.301 C 156.331 323.905,156.515 323.747,151.966 328.285 C 145.611 334.624,140.104 342.126,141.172 342.987 C 144.293 345.501,158.514 350.245,167.249 351.686 C 171.769 352.432,172.101 352.471,178.382 353.006 C 185.091 353.577,184.782 353.608,185.350 352.298 C 189.949 341.688,196.046 330.757,202.236 322.023 C 203.213 320.644,204.013 319.409,204.013 319.278 C 204.013 319.148,201.887 318.957,199.288 318.853 C 196.689 318.750,194.272 318.630,193.916 318.588 C 193.560 318.545,191.987 318.425,190.421 318.322 C 188.854 318.218,187.398 318.101,187.184 318.061 C 186.971 318.022,185.864 317.909,184.725 317.811 C 183.586 317.714,182.304 317.585,181.877 317.526 C 181.450 317.467,179.236 317.180,176.958 316.889 C 174.680 316.598,171.900 316.189,170.780 315.979 C 167.464 315.359,167.805 315.224,162.416 319.301 " stroke="none" fill="#4f39f6" fill-rule="evenodd"/><path id="path1" d="M246.845 88.867 L 246.084 89.709 246.926 88.948 C 247.388 88.530,247.767 88.151,247.767 88.107 C 247.767 87.907,247.553 88.083,246.845 88.867 M238.564 97.152 L 237.540 98.252 238.641 97.229 C 239.664 96.277,239.860 96.052,239.664 96.052 C 239.622 96.052,239.127 96.547,238.564 97.152 M200.255 108.026 L 196.893 111.456 200.324 108.094 C 203.510 104.971,203.871 104.595,203.686 104.595 C 203.648 104.595,202.104 106.139,200.255 108.026 M246.068 113.722 L 245.307 114.563 246.149 113.803 C 246.612 113.384,246.990 113.006,246.990 112.961 C 246.990 112.761,246.777 112.937,246.068 113.722 M282.136 163.290 C 282.456 163.351,282.981 163.351,283.301 163.290 C 283.621 163.228,283.359 163.177,282.718 163.177 C 282.078 163.177,281.816 163.228,282.136 163.290 M309.644 191.926 C 309.644 191.970,310.023 192.349,310.485 192.767 L 311.327 193.528 310.566 192.686 C 309.858 191.902,309.644 191.726,309.644 191.926 M236.444 199.280 C 236.837 199.339,237.420 199.338,237.738 199.276 C 238.057 199.215,237.735 199.166,237.023 199.168 C 236.311 199.170,236.050 199.220,236.444 199.280 M113.786 230.421 C 114.488 231.133,115.120 231.715,115.191 231.715 C 115.262 231.715,114.747 231.133,114.045 230.421 C 113.344 229.709,112.712 229.126,112.641 229.126 C 112.570 229.126,113.085 229.709,113.786 230.421 M68.091 238.269 C 68.091 238.313,68.469 238.692,68.932 239.110 L 69.773 239.871 69.013 239.029 C 68.304 238.245,68.091 238.069,68.091 238.269 M83.366 240.340 C 83.366 240.384,83.744 240.763,84.207 241.181 L 85.049 241.942 84.288 241.100 C 83.579 240.316,83.366 240.140,83.366 240.340 M324.790 252.945 C 325.491 253.657,326.123 254.239,326.194 254.239 C 326.265 254.239,325.750 253.657,325.049 252.945 C 324.347 252.233,323.715 251.650,323.644 251.650 C 323.573 251.650,324.088 252.233,324.790 252.945 M111.327 259.240 C 111.327 259.284,111.706 259.663,112.168 260.081 L 113.010 260.841 112.249 260.000 C 111.540 259.216,111.327 259.040,111.327 259.240 M119.162 286.529 C 119.556 286.588,120.138 286.587,120.457 286.525 C 120.775 286.464,120.453 286.415,119.741 286.417 C 119.029 286.419,118.769 286.469,119.162 286.529 M217.023 289.111 C 217.272 289.176,217.680 289.176,217.929 289.111 C 218.178 289.045,217.974 288.992,217.476 288.992 C 216.977 288.992,216.773 289.045,217.023 289.111 M206.667 292.742 C 207.058 292.801,207.699 292.801,208.091 292.742 C 208.482 292.683,208.162 292.634,207.379 292.634 C 206.595 292.634,206.275 292.683,206.667 292.742 M213.010 292.739 C 213.330 292.801,213.854 292.801,214.175 292.739 C 214.495 292.678,214.233 292.627,213.592 292.627 C 212.951 292.627,212.689 292.678,213.010 292.739 M222.512 299.612 L 221.489 300.712 222.589 299.689 C 223.194 299.126,223.689 298.631,223.689 298.588 C 223.689 298.392,223.464 298.588,222.512 299.612 M275.714 309.320 L 274.822 310.291 275.793 309.399 C 276.327 308.908,276.764 308.471,276.764 308.428 C 276.764 308.230,276.545 308.417,275.714 309.320 M211.248 310.874 L 210.356 311.845 211.327 310.952 C 212.231 310.122,212.417 309.903,212.219 309.903 C 212.176 309.903,211.739 310.340,211.248 310.874 M148.204 331.974 L 147.443 332.816 148.285 332.055 C 149.069 331.346,149.245 331.133,149.045 331.133 C 149.001 331.133,148.622 331.511,148.204 331.974 " stroke="none" fill="#18548c" fill-rule="evenodd"/><path id="path2" d="M246.845 88.867 L 246.084 89.709 246.926 88.948 C 247.388 88.530,247.767 88.151,247.767 88.107 C 247.767 87.907,247.553 88.083,246.845 88.867 M238.564 97.152 L 237.540 98.252 238.641 97.229 C 239.664 96.277,239.860 96.052,239.664 96.052 C 239.622 96.052,239.127 96.547,238.564 97.152 M200.255 108.026 L 196.893 111.456 200.324 108.094 C 203.510 104.971,203.871 104.595,203.686 104.595 C 203.648 104.595,202.104 106.139,200.255 108.026 M246.068 113.722 L 245.307 114.563 246.149 113.803 C 246.612 113.384,246.990 113.006,246.990 112.961 C 246.990 112.761,246.777 112.937,246.068 113.722 M282.136 163.290 C 282.456 163.351,282.981 163.351,283.301 163.290 C 283.621 163.228,283.359 163.177,282.718 163.177 C 282.078 163.177,281.816 163.228,282.136 163.290 M309.644 191.926 C 309.644 191.970,310.023 192.349,310.485 192.767 L 311.327 193.528 310.566 192.686 C 309.858 191.902,309.644 191.726,309.644 191.926 M236.444 199.280 C 236.837 199.339,237.420 199.338,237.738 199.276 C 238.057 199.215,237.735 199.166,237.023 199.168 C 236.311 199.170,236.050 199.220,236.444 199.280 M113.786 230.421 C 114.488 231.133,115.120 231.715,115.191 231.715 C 115.262 231.715,114.747 231.133,114.045 230.421 C 113.344 229.709,112.712 229.126,112.641 229.126 C 112.570 229.126,113.085 229.709,113.786 230.421 M68.091 238.269 C 68.091 238.313,68.469 238.692,68.932 239.110 L 69.773 239.871 69.013 239.029 C 68.304 238.245,68.091 238.069,68.091 238.269 M83.366 240.340 C 83.366 240.384,83.744 240.763,84.207 241.181 L 85.049 241.942 84.288 241.100 C 83.579 240.316,83.366 240.140,83.366 240.340 M324.790 252.945 C 325.491 253.657,326.123 254.239,326.194 254.239 C 326.265 254.239,325.750 253.657,325.049 252.945 C 324.347 252.233,323.715 251.650,323.644 251.650 C 323.573 251.650,324.088 252.233,324.790 252.945 M111.327 259.240 C 111.327 259.284,111.706 259.663,112.168 260.081 L 113.010 260.841 112.249 260.000 C 111.540 259.216,111.327 259.040,111.327 259.240 M119.162 286.529 C 119.556 286.588,120.138 286.587,120.457 286.525 C 120.775 286.464,120.453 286.415,119.741 286.417 C 119.029 286.419,118.769 286.469,119.162 286.529 M217.023 289.111 C 217.272 289.176,217.680 289.176,217.929 289.111 C 218.178 289.045,217.974 288.992,217.476 288.992 C 216.977 288.992,216.773 289.045,217.023 289.111 M206.667 292.742 C 207.058 292.801,207.699 292.801,208.091 292.742 C 208.482 292.683,208.162 292.634,207.379 292.634 C 206.595 292.634,206.275 292.683,206.667 292.742 M213.010 292.739 C 213.330 292.801,213.854 292.801,214.175 292.739 C 214.495 292.678,214.233 292.627,213.592 292.627 C 212.951 292.627,212.689 292.678,213.010 292.739 M222.512 299.612 L 221.489 300.712 222.589 299.689 C 223.194 299.126,223.689 298.631,223.689 298.588 C 223.689 298.392,223.464 298.588,222.512 299.612 M275.714 309.320 L 274.822 310.291 275.793 309.399 C 276.327 308.908,276.764 308.471,276.764 308.428 C 276.764 308.230,276.545 308.417,275.714 309.320 M211.248 310.874 L 210.356 311.845 211.327 310.952 C 212.231 310.122,212.417 309.903,212.219 309.903 C 212.176 309.903,211.739 310.340,211.248 310.874 M148.204 331.974 L 147.443 332.816 148.285 332.055 C 149.069 331.346,149.245 331.133,149.045 331.133 C 149.001 331.133,148.622 331.511,148.204 331.974 " stroke="none" fill="#18548c" fill-rule="evenodd"/><path id="path3" d="M246.845 88.867 L 246.084 89.709 246.926 88.948 C 247.388 88.530,247.767 88.151,247.767 88.107 C 247.767 87.907,247.553 88.083,246.845 88.867 M238.564 97.152 L 237.540 98.252 238.641 97.229 C 239.664 96.277,239.860 96.052,239.664 96.052 C 239.622 96.052,239.127 96.547,238.564 97.152 M200.255 108.026 L 196.893 111.456 200.324 108.094 C 203.510 104.971,203.871 104.595,203.686 104.595 C 203.648 104.595,202.104 106.139,200.255 108.026 M246.068 113.722 L 245.307 114.563 246.149 113.803 C 246.612 113.384,246.990 113.006,246.990 112.961 C 246.990 112.761,246.777 112.937,246.068 113.722 M282.136 163.290 C 282.456 163.351,282.981 163.351,283.301 163.290 C 283.621 163.228,283.359 163.177,282.718 163.177 C 282.078 163.177,281.816 163.228,282.136 163.290 M309.644 191.926 C 309.644 191.970,310.023 192.349,310.485 192.767 L 311.327 193.528 310.566 192.686 C 309.858 191.902,309.644 191.726,309.644 191.926 M236.444 199.280 C 236.837 199.339,237.420 199.338,237.738 199.276 C 238.057 199.215,237.735 199.166,237.023 199.168 C 236.311 199.170,236.050 199.220,236.444 199.280 M113.786 230.421 C 114.488 231.133,115.120 231.715,115.191 231.715 C 115.262 231.715,114.747 231.133,114.045 230.421 C 113.344 229.709,112.712 229.126,112.641 229.126 C 112.570 229.126,113.085 229.709,113.786 230.421 M68.091 238.269 C 68.091 238.313,68.469 238.692,68.932 239.110 L 69.773 239.871 69.013 239.029 C 68.304 238.245,68.091 238.069,68.091 238.269 M83.366 240.340 C 83.366 240.384,83.744 240.763,84.207 241.181 L 85.049 241.942 84.288 241.100 C 83.579 240.316,83.366 240.140,83.366 240.340 M324.790 252.945 C 325.491 253.657,326.123 254.239,326.194 254.239 C 326.265 254.239,325.750 253.657,325.049 252.945 C 324.347 252.233,323.715 251.650,323.644 251.650 C 323.573 251.650,324.088 252.233,324.790 252.945 M111.327 259.240 C 111.327 259.284,111.706 259.663,112.168 260.081 L 113.010 260.841 112.249 260.000 C 111.540 259.216,111.327 259.040,111.327 259.240 M119.162 286.529 C 119.556 286.588,120.138 286.587,120.457 286.525 C 120.775 286.464,120.453 286.415,119.741 286.417 C 119.029 286.419,118.769 286.469,119.162 286.529 M217.023 289.111 C 217.272 289.176,217.680 289.176,217.929 289.111 C 218.178 289.045,217.974 288.992,217.476 288.992 C 216.977 288.992,216.773 289.045,217.023 289.111 M206.667 292.742 C 207.058 292.801,207.699 292.801,208.091 292.742 C 208.482 292.683,208.162 292.634,207.379 292.634 C 206.595 292.634,206.275 292.683,206.667 292.742 M213.010 292.739 C 213.330 292.801,213.854 292.801,214.175 292.739 C 214.495 292.678,214.233 292.627,213.592 292.627 C 212.951 292.627,212.689 292.678,213.010 292.739 M222.512 299.612 L 221.489 300.712 222.589 299.689 C 223.194 299.126,223.689 298.631,223.689 298.588 C 223.689 298.392,223.464 298.588,222.512 299.612 M275.714 309.320 L 274.822 310.291 275.793 309.399 C 276.327 308.908,276.764 308.471,276.764 308.428 C 276.764 308.230,276.545 308.417,275.714 309.320 M211.248 310.874 L 210.356 311.845 211.327 310.952 C 212.231 310.122,212.417 309.903,212.219 309.903 C 212.176 309.903,211.739 310.340,211.248 310.874 M148.204 331.974 L 147.443 332.816 148.285 332.055 C 149.069 331.346,149.245 331.133,149.045 331.133 C 149.001 331.133,148.622 331.511,148.204 331.974 " stroke="none" fill="#18548c" fill-rule="evenodd"/><path id="path4" d="M246.845 88.867 L 246.084 89.709 246.926 88.948 C 247.388 88.530,247.767 88.151,247.767 88.107 C 247.767 87.907,247.553 88.083,246.845 88.867 M238.564 97.152 L 237.540 98.252 238.641 97.229 C 239.664 96.277,239.860 96.052,239.664 96.052 C 239.622 96.052,239.127 96.547,238.564 97.152 M200.255 108.026 L 196.893 111.456 200.324 108.094 C 203.510 104.971,203.871 104.595,203.686 104.595 C 203.648 104.595,202.104 106.139,200.255 108.026 M246.068 113.722 L 245.307 114.563 246.149 113.803 C 246.612 113.384,246.990 113.006,246.990 112.961 C 246.990 112.761,246.777 112.937,246.068 113.722 M282.136 163.290 C 282.456 163.351,282.981 163.351,283.301 163.290 C 283.621 163.228,283.359 163.177,282.718 163.177 C 282.078 163.177,281.816 163.228,282.136 163.290 M309.644 191.926 C 309.644 191.970,310.023 192.349,310.485 192.767 L 311.327 193.528 310.566 192.686 C 309.858 191.902,309.644 191.726,309.644 191.926 M236.444 199.280 C 236.837 199.339,237.420 199.338,237.738 199.276 C 238.057 199.215,237.735 199.166,237.023 199.168 C 236.311 199.170,236.050 199.220,236.444 199.280 M113.786 230.421 C 114.488 231.133,115.120 231.715,115.191 231.715 C 115.262 231.715,114.747 231.133,114.045 230.421 C 113.344 229.709,112.712 229.126,112.641 229.126 C 112.570 229.126,113.085 229.709,113.786 230.421 M68.091 238.269 C 68.091 238.313,68.469 238.692,68.932 239.110 L 69.773 239.871 69.013 239.029 C 68.304 238.245,68.091 238.069,68.091 238.269 M83.366 240.340 C 83.366 240.384,83.744 240.763,84.207 241.181 L 85.049 241.942 84.288 241.100 C 83.579 240.316,83.366 240.140,83.366 240.340 M324.790 252.945 C 325.491 253.657,326.123 254.239,326.194 254.239 C 326.265 254.239,325.750 253.657,325.049 252.945 C 324.347 252.233,323.715 251.650,323.644 251.650 C 323.573 251.650,324.088 252.233,324.790 252.945 M111.327 259.240 C 111.327 259.284,111.706 259.663,112.168 260.081 L 113.010 260.841 112.249 260.000 C 111.540 259.216,111.327 259.040,111.327 259.240 M119.162 286.529 C 119.556 286.588,120.138 286.587,120.457 286.525 C 120.775 286.464,120.453 286.415,119.741 286.417 C 119.029 286.419,118.769 286.469,119.162 286.529 M217.023 289.111 C 217.272 289.176,217.680 289.176,217.929 289.111 C 218.178 289.045,217.974 288.992,217.476 288.992 C 216.977 288.992,216.773 289.045,217.023 289.111 M206.667 292.742 C 207.058 292.801,207.699 292.801,208.091 292.742 C 208.482 292.683,208.162 292.634,207.379 292.634 C 206.595 292.634,206.275 292.683,206.667 292.742 M213.010 292.739 C 213.330 292.801,213.854 292.801,214.175 292.739 C 214.495 292.678,214.233 292.627,213.592 292.627 C 212.951 292.627,212.689 292.678,213.010 292.739 M222.512 299.612 L 221.489 300.712 222.589 299.689 C 223.194 299.126,223.689 298.631,223.689 298.588 C 223.689 298.392,223.464 298.588,222.512 299.612 M275.714 309.320 L 274.822 310.291 275.793 309.399 C 276.327 308.908,276.764 308.471,276.764 308.428 C 276.764 308.230,276.545 308.417,275.714 309.320 M211.248 310.874 L 210.356 311.845 211.327 310.952 C 212.231 310.122,212.417 309.903,212.219 309.903 C 212.176 309.903,211.739 310.340,211.248 310.874 M148.204 331.974 L 147.443 332.816 148.285 332.055 C 149.069 331.346,149.245 331.133,149.045 331.133 C 149.001 331.133,148.622 331.511,148.204 331.974 " stroke="none" fill="#18548c" fill-rule="evenodd"/></g></svg>